<?xml version="1.0" encoding="UTF-8"?>
<svg id="_レイヤー_1" data-name=" レイヤー 1" xmlns="http://www.w3.org/2000/svg" viewBox="0 0 327.83 93.78">
  <defs>
    <style>
      .cls-1 {
        stroke: #fff;
      }

      .cls-1, .cls-2 {
        stroke-width: 3px;
      }

      .cls-1, .cls-2, .cls-3 {
        fill: none;
        stroke-linecap: round;
        stroke-miterlimit: 10;
      }

      .cls-2, .cls-3 {
        stroke: #9fb6c3;
      }

      .cls-4 {
        fill: #9fb6c3;
      }

      .cls-3 {
        stroke-width: 2px;
      }
    </style>
  </defs>
  <path class="cls-4" d="m44,92.71h-5.69c-1.39,0-2.52-1.13-2.52-2.52v-15.27c0-1.39,1.13-2.52,2.52-2.52h3.82c2.02,0,3.6-.72,3.6-3.24v-12.31c0-1.58-.58-3.17-2.52-3.17-1.8,0-3.1.86-8.5,5.54l-9.22,8.03c-.55.48-.86,1.17-.86,1.9v21.03c0,1.39-1.13,2.52-2.52,2.52H7.56c-1.39,0-2.52-1.13-2.52-2.52v-4.46c0-1.39-1.13-2.52-2.52-2.52h0c-1.39,0-2.52-1.13-2.52-2.52v-15.77c0-1.39,1.13-2.52,2.52-2.52h0c1.39,0,2.52-1.13,2.52-2.52v-2.02c0-1.39-1.13-2.52-2.52-2.52h0c-1.39,0-2.52-1.13-2.52-2.52v-14.98c0-1.39,1.13-2.52,2.52-2.52h0c1.39,0,2.52-1.13,2.52-2.52v-1.8c0-1.39,1.13-2.52,2.52-2.52h14.55c1.39,0,2.52,1.13,2.52,2.52v5.48c0,2.1,2.42,3.28,4.07,1.98l.25-.19c6.48-5.04,10.73-7.42,17.28-7.42,14.76,0,19.15,10.66,19.15,20.95v20.52c0,14.04-6.48,20.38-21.39,20.38v.02Z"/>
  <path class="cls-4" d="m117.76,80.52c-.97,0-1.76-.79-1.76-1.76v-25.6c0-3.02-.94-4.61-2.81-4.61h-.65c1.08,3.38,1.44,7.56,1.44,12.53v16.71c0,9.58-3.46,15.91-14.62,15.91h-7.24c-.97,0-1.76-.79-1.76-1.76v-16.72c0-.97.79-1.76,1.76-1.76h.83c1.58,0,2.38-.58,2.38-2.59v-9.72c0-1.66-.86-2.09-2.09-2.09h-2.02c-.93,0-1.69.72-1.75,1.64l-2.02,31.35c-.06.92-.83,1.64-1.75,1.64h-15.85c-1.02,0-1.82-.86-1.75-1.87l1.99-30.89c.07-1.01-.74-1.87-1.75-1.87h-1.58c-.81,0-1.51-.55-1.7-1.33l-4.43-17.58c-.28-1.11.56-2.19,1.7-2.19h7.61c.93,0,1.7-.72,1.75-1.65l.3-4.7c.06-.93.83-1.65,1.75-1.65h15.85c1.01,0,1.82.86,1.75,1.87l-.27,4.26c-.06,1.01.74,1.87,1.75,1.87h0c6.72,0,11.4,1.13,14.59,3.35,1.17.81,2.76-.01,2.76-1.44v-6.92c0-.97.79-1.76,1.76-1.76h1.99c12.82,0,18.72,7.99,18.72,19.37v28.2c0,.97-.79,1.76-1.76,1.76h-13.12Z"/>
  <path class="cls-4" d="m165.97,93.77h-15.27c-12.46,0-19.87-6.98-19.87-18v-2.74c0-10.01,7.99-16.2,17.21-16.2h1.37v-4.3c0-1.24-1.01-2.25-2.25-2.25h-12.93c-1.24,0-2.25-1.01-2.25-2.25v-15.88c0-1.24,1.01-2.25,2.25-2.25h34.82c1.24,0,2.25,1.01,2.25,2.25v8.08c0,1.17.91,2.15,2.08,2.24,16.74,1.25,23.12,10.17,23.12,24.01v2.74c0,13.32-7.49,24.55-30.53,24.55h0Zm-13.54-20.38c0-1.8-1.22-2.88-2.3-2.88h-.65c-1.66,0-2.81,1.08-2.81,2.66s1.08,2.81,3.17,2.81h.34c1.24,0,2.25-1.01,2.25-2.25v-.34h0Zm15.19-12.67h0c-1.75,0-2.81,1.9-1.92,3.4,1.51,2.56,2.4,5.58,2.64,8.77h.14c3.6,0,4.97-2.38,4.97-6.26,0-3.24-1.37-5.9-5.83-5.9h0Z"/>
  <path class="cls-4" d="m234,93.77v-1.22c0-1.08-1.01-2.45-4.03-3.67l-21.67-8.57c-10.01-3.96-13.83-8.28-13.83-17.43v-4.54c0-8.42,2.74-13.25,13.83-17.43l22.03-8.28c1.95-.72,3.58-1.26,4.34-2.03.63-.63,1.42-1.07,2.31-1.07h18.59c1.87,0,3.23,1.74,2.84,3.57-1.86,8.65-8.19,13.02-18.65,17.1l-22.11,8.64c-1.15.43-1.58.86-1.58,1.51v.43c0,.72.43,1.3,1.58,1.58l22.11,8.64c13.32,5.18,18.36,11.23,18.36,21.67v1.08h-24.12v.02Z"/>
  <path class="cls-4" d="m300.01,93.77c-11.81,0-18.72-4.75-18.72-17.14v-13.25c0-1.66-1.01-2.88-3.24-2.88h-1.15l-1.63,31.32c-.05,1.05-.92,1.87-1.97,1.87h-15.7c-1.13,0-2.03-.95-1.97-2.08l3.11-60.21c.05-1.05.92-1.87,1.97-1.87h15.76c1.13,0,2.04.95,1.97,2.09l-.34,6.13c-.06,1.13.84,2.09,1.97,2.09h0c11.95,0,18.5,6.26,18.5,17.79v14.19c0,1.37.65,1.94,1.73,1.94.94,0,2.02-.5,2.02-1.94v-25.89c0-1.09.88-1.98,1.98-1.98h14.34c1.09,0,1.98.88,1.98,1.98v24.81c0,13.18-5.33,23.04-20.59,23.04h-.02Z"/>
  <path class="cls-1" d="m264.93,85.74l2.01-36.91s20.97-6.42,21.12,10.43-.36,27.71,12.68,28.09c12.33.36,12.09-8.83,12.09-8.83v-34.49"/>
  <path class="cls-1" d="m168.24,87.24s21.27,1.77,22.68-18.59"/>
  <path class="cls-1" d="m210.28,45.27s-10.93,2.45-12.36,11.83.79,15.42,10.25,18.88"/>
  <polyline class="cls-1" points="134.85 45.27 134.85 33.83 155.22 33.83"/>
  <path class="cls-1" d="m95.2,42.44s14.27-.47,13.8,15.21"/>
  <path class="cls-1" d="m114.86,35.42s14.27.7,13.1,14.62"/>
  <path class="cls-1" d="m27.24,45.27l7.89-6.18c4.07-3.19,9.38-4.54,14.4-3.31,2.73.66,5.23,2,6.25,4.57"/>
  <path class="cls-1" d="m47.94,88.57s12.62-1.06,12.12-13.79"/>
  <path class="cls-1" d="m99.5,89.97s9.68,1.79,10.06-8.28"/>
  <line class="cls-2" x1="309.43" y1="41.01" x2="315.35" y2="41.01"/>
  <path class="cls-4" d="m309.96,43.12h4.87c.23,0,.34.32.19.52h0c-1.44,1.91-3.81,1.91-5.25,0h0c-.15-.2-.03-.52.19-.52Z"/>
  <line class="cls-2" x1="308.03" y1="37.4" x2="316.76" y2="37.4"/>
  <path class="cls-2" d="m307.45,33.79s.76-3.49-1.51-5.52c0,0-7.23-3.65-7.47-12.83-.24-9.17,6.2-14.2,14.49-13.93"/>
  <path class="cls-2" d="m317.34,33.79s-.76-3.49,1.51-5.52c0,0,7.23-3.65,7.47-12.83s-6.2-14.2-14.49-13.93"/>
  <line class="cls-3" x1="308.02" y1="21.89" x2="309.7" y2="25.03"/>
  <line class="cls-3" x1="312.39" y1="19.33" x2="312.39" y2="25.44"/>
  <line class="cls-3" x1="317.03" y1="21.89" x2="315.35" y2="25.03"/>
</svg>