<?xml version="1.0" encoding="UTF-8"?>
<svg id="_レイヤー_1" data-name="レイヤー 1" xmlns="http://www.w3.org/2000/svg" viewBox="0 0 841.89 595.28">
  <defs>
    <style>
      .cls-1 {
        stroke: #9fb6c3;
      }

      .cls-1, .cls-2 {
        stroke-width: 6px;
      }

      .cls-1, .cls-2, .cls-3 {
        fill: none;
        stroke-linecap: round;
        stroke-miterlimit: 10;
      }

      .cls-2, .cls-3 {
        stroke: #fff;
      }

      .cls-3 {
        stroke-width: 5px;
      }

      .cls-4 {
        fill: #9fb6c3;
        stroke-width: 0px;
      }
    </style>
  </defs>
  <path class="cls-4" d="m181.79,387.75h-11.39c-2.79,0-5.05-2.26-5.05-5.05v-30.58c0-2.79,2.26-5.05,5.05-5.05h7.64c4.04,0,7.21-1.44,7.21-6.49v-24.67c0-3.17-1.15-6.35-5.05-6.35-3.61,0-6.2,1.73-17.02,11.11l-18.46,16.09c-1.1.96-1.73,2.35-1.73,3.81v42.13c0,2.79-2.26,5.05-5.05,5.05h-29.14c-2.79,0-5.05-2.26-5.05-5.05v-8.94c0-2.79-2.26-5.05-5.05-5.05h0c-2.79,0-5.05-2.26-5.05-5.05v-31.59c0-2.79,2.26-5.05,5.05-5.05h0c2.79,0,5.05-2.26,5.05-5.05v-4.04c0-2.79-2.26-5.05-5.05-5.05h0c-2.79,0-5.05-2.26-5.05-5.05v-30.01c0-2.79,2.26-5.05,5.05-5.05h0c2.79,0,5.05-2.26,5.05-5.05v-3.61c0-2.79,2.26-5.05,5.05-5.05h29.14c2.79,0,5.05,2.26,5.05,5.05v10.98c0,4.21,4.85,6.57,8.16,3.97l.49-.39c12.98-10.1,21.49-14.86,34.62-14.86,29.57,0,38.37,21.35,38.37,41.98v41.11c0,28.13-12.98,40.82-42.84,40.82Z"/>
  <path class="cls-4" d="m329.56,363.35c-1.94,0-3.52-1.58-3.52-3.52v-51.29c0-6.06-1.87-9.23-5.62-9.23h-1.3c2.16,6.78,2.89,15.15,2.89,25.1v33.47c0,19.18-6.92,31.88-29.28,31.88h-14.51c-1.94,0-3.52-1.58-3.52-3.52v-33.49c0-1.94,1.58-3.52,3.52-3.52h1.67c3.18,0,4.76-1.15,4.76-5.19v-19.47c0-3.32-1.73-4.18-4.18-4.18h-4.05c-1.86,0-3.39,1.44-3.51,3.29l-4.05,62.79c-.12,1.85-1.66,3.29-3.51,3.29h-31.74c-2.03,0-3.64-1.72-3.51-3.75l3.99-61.89c.13-2.03-1.48-3.75-3.51-3.75h-3.17c-1.61,0-3.02-1.1-3.41-2.66l-8.88-35.22c-.56-2.22,1.12-4.38,3.41-4.38h15.24c1.86,0,3.4-1.44,3.51-3.3l.59-9.41c.12-1.86,1.66-3.3,3.51-3.3h31.75c2.03,0,3.64,1.71,3.51,3.74l-.54,8.53c-.13,2.03,1.48,3.74,3.51,3.74h0c13.47,0,22.83,2.25,29.24,6.7,2.34,1.63,5.53-.03,5.53-2.88v-13.86c0-1.94,1.58-3.52,3.52-3.52h3.98c25.68,0,37.5,16.01,37.5,38.8v56.49c0,1.94-1.58,3.52-3.52,3.52h-26.28Z"/>
  <path class="cls-4" d="m426.15,389.89h-30.58c-24.95,0-39.81-13.99-39.81-36.06v-5.48c0-20.05,16.01-32.46,34.47-32.46h2.74v-8.62c0-2.49-2.02-4.5-4.5-4.5h-25.9c-2.49,0-4.5-2.02-4.5-4.5v-31.81c0-2.49,2.02-4.5,4.5-4.5h69.75c2.49,0,4.5,2.02,4.5,4.5v16.2c0,2.35,1.82,4.31,4.17,4.48,33.53,2.5,46.32,20.37,46.32,48.1v5.48c0,26.69-15,49.19-61.16,49.19Zm-27.12-40.82c0-3.61-2.45-5.77-4.61-5.77h-1.3c-3.32,0-5.63,2.16-5.63,5.34s2.16,5.63,6.35,5.63h.69c2.49,0,4.5-2.02,4.5-4.5v-.69Zm30.44-25.39h0c-3.5,0-5.63,3.8-3.85,6.82,3.03,5.12,4.81,11.18,5.29,17.56h.29c7.21,0,9.95-4.76,9.95-12.55,0-6.49-2.74-11.83-11.69-11.83Z"/>
  <path class="cls-4" d="m562.43,389.89v-2.45c0-2.16-2.02-4.9-8.08-7.36l-43.42-17.17c-20.05-7.93-27.7-16.59-27.7-34.91v-9.09c0-16.88,5.48-26.54,27.7-34.91l44.14-16.59c3.91-1.44,7.16-2.52,8.7-4.06,1.26-1.27,2.85-2.14,4.63-2.14h37.24c3.75,0,6.48,3.48,5.69,7.15-3.73,17.33-16.41,26.07-37.37,34.25l-44.29,17.31c-2.31.87-3.17,1.73-3.17,3.03v.87c0,1.44.87,2.6,3.17,3.17l44.29,17.31c26.69,10.39,36.78,22.5,36.78,43.42v2.16h-48.32Z"/>
  <path class="cls-4" d="m694.65,389.89c-23.66,0-37.5-9.52-37.5-34.33v-26.54c0-3.32-2.02-5.77-6.49-5.77h-2.31l-3.27,62.75c-.11,2.1-1.85,3.75-3.95,3.75h-31.46c-2.27,0-4.07-1.9-3.95-4.16l6.23-120.61c.11-2.1,1.85-3.75,3.95-3.75h31.58c2.27,0,4.08,1.91,3.95,4.18l-.69,12.27c-.13,2.27,1.68,4.18,3.95,4.18h0c23.95,0,37.07,12.55,37.07,35.63v28.42c0,2.74,1.3,3.9,3.46,3.9,1.88,0,4.04-1.01,4.04-3.9v-51.87c0-2.19,1.77-3.96,3.96-3.96h28.72c2.19,0,3.96,1.77,3.96,3.96v49.7c0,26.4-10.67,46.16-41.26,46.16Z"/>
  <path class="cls-3" d="m624.38,373.79l3.61-66.44c.25-4.64,3.69-8.51,8.28-9.21,12.18-1.85,34.22-1.83,34.43,22.59.29,33.76-.73,55.5,25.4,56.27,24.71.72,24.21-17.68,24.21-17.68v-69.09"/>
  <path class="cls-3" d="m430.69,376.81s42.6,3.55,45.44-37.25"/>
  <path class="cls-3" d="m514.91,292.73s-21.9,4.91-24.75,23.7c-2.85,18.79,1.58,30.9,20.54,37.83"/>
  <path class="cls-3" d="m363.81,292.73v-14.17c0-4.83,3.92-8.75,8.75-8.75h32.04"/>
  <path class="cls-2" d="m284.37,287.06s28.59-.94,27.65,30.47"/>
  <path class="cls-3" d="m323.74,273s28.59,1.4,26.25,29.29"/>
  <path class="cls-2" d="m148.23,292.73l15.8-12.38c8.15-6.39,18.78-9.09,28.84-6.63,5.46,1.33,10.47,4.01,12.51,9.15"/>
  <path class="cls-2" d="m189.69,379.47s25.27-2.13,24.28-27.62"/>
  <path class="cls-3" d="m292.99,382.27s19.39,3.59,20.14-16.58"/>
  <line class="cls-1" x1="714.39" y1="284.53" x2="726.25" y2="284.53"/>
  <path class="cls-4" d="m715.45,288.76h9.76c.45,0,.69.65.38,1.05h0c-2.89,3.82-7.63,3.82-10.52,0h0c-.3-.4-.07-1.05.38-1.05Z"/>
  <line class="cls-1" x1="711.58" y1="277.3" x2="729.06" y2="277.3"/>
  <path class="cls-1" d="m710.42,270.07s1.53-6.99-3.03-11.06c0,0-14.48-7.32-14.96-25.7-.49-18.38,12.42-28.45,29.02-27.9"/>
  <path class="cls-1" d="m730.23,270.07s-1.53-6.99,3.03-11.06c0,0,14.48-7.32,14.96-25.7.49-18.38-12.42-28.45-29.02-27.9"/>
  <line class="cls-1" x1="711.56" y1="246.24" x2="714.92" y2="252.52"/>
  <line class="cls-1" x1="720.32" y1="241.11" x2="720.32" y2="253.34"/>
  <line class="cls-1" x1="729.62" y1="246.24" x2="726.25" y2="252.52"/>
</svg>