<?xml version="1.0" encoding="UTF-8"?>
<svg xmlns="http://www.w3.org/2000/svg" viewBox="0 0 257.95 155.91">
  <defs>
    <style>
      .cls-1 {
        stroke: #fff;
        stroke-miterlimit: 10;
        stroke-width: .15px;
      }

      .cls-1, .cls-2, .cls-3 {
        fill: #f2f2f2;
      }

      .cls-4 {
        fill: #de9f66;
      }

      .cls-3 {
        font-family: Arial-BoldMT, Arial;
        font-size: 22.23px;
        font-weight: 700;
      }
    </style>
  </defs>
  <g id="_レイヤー_1" data-name="レイヤー 1">
    <rect class="cls-4" x="29.73" y="51.07" width="198.49" height="53.76" rx="11.36" ry="11.36"/>
  </g>
  <g id="_レイヤー_2" data-name="レイヤー 2">
    <text class="cls-3" transform="translate(113.44 86.48)"><tspan x="0" y="0">LOGOUT</tspan></text>
    <g id="_7nXG0K.tif" data-name="7nXG0K.tif">
      <path class="cls-2" d="m59.32,60.87c.84,0,1.67,0,2.51,0,.43.05.87.1,1.3.16,3,.43,5.71,1.55,8.1,3.4.44.34.86.72,1.31,1.09-1.64,1.58-3.24,3.12-4.84,4.66-.07-.05-.13-.1-.18-.14-3.46-2.92-7.34-3.37-11.4-1.6-4.72,2.06-7.27,7.03-6.42,12.12.58,3.45,2.4,6.08,5.39,7.88,2.49,1.5,5.21,1.82,8.02,1.24,3.61-.74,6.07-2.87,7.31-6.37.12-.33.18-.68.28-1.07h-10.11v-6.1h16.81c.03.15.06.28.08.41.07.5.14,1.01.21,1.51v2.3c-.02.1-.05.2-.07.3-.17,1.1-.25,2.21-.51,3.29-.91,3.8-2.82,7-6.01,9.32-4.07,2.95-8.66,3.77-13.54,2.99-4.58-.74-8.31-3.03-11.13-6.7-3.12-4.07-4.25-8.7-3.46-13.75.62-3.96,2.45-7.33,5.37-10.09,2.58-2.43,5.62-3.97,9.12-4.58.61-.11,1.23-.18,1.85-.27Z"/>
    </g>
    <line class="cls-1" x1="91.97" y1="51.07" x2="91.97" y2="104.83"/>
  </g>
</svg>