<?xml version="1.0" encoding="UTF-8"?>
<svg id="_レイヤー_1" data-name="レイヤー 1" xmlns="http://www.w3.org/2000/svg" viewBox="0 0 595.28 841.89">
  <defs>
    <style>
      .cls-1 {
        stroke: #d8c99a;
      }

      .cls-1, .cls-2 {
        stroke-width: 20px;
      }

      .cls-1, .cls-2, .cls-3, .cls-4 {
        stroke-miterlimit: 10;
      }

      .cls-1, .cls-2, .cls-4 {
        fill: none;
        stroke-linecap: round;
      }

      .cls-2, .cls-3, .cls-4 {
        stroke: #9fb6c3;
      }

      .cls-3 {
        fill: #ceeaf6;
        stroke-width: 12px;
      }

      .cls-4 {
        stroke-width: 26px;
      }

      .cls-5 {
        fill: #9fb6c3;
      }

      .cls-5, .cls-6 {
        stroke-width: 0px;
      }

      .cls-6 {
        fill: #fff;
      }
    </style>
  </defs>
  <g>
    <line class="cls-4" x1="271.53" y1="519.46" x2="323.74" y2="519.46"/>
    <path class="cls-5" d="m276.18,546.71h42.95c1.99,0,3.03,2.85,1.69,4.62h0c-12.74,16.83-33.59,16.83-46.33,0h0c-1.34-1.77-.3-4.62,1.69-4.62Z"/>
    <line class="cls-4" x1="259.15" y1="487.64" x2="336.12" y2="487.64"/>
    <path class="cls-4" d="m254.03,455.82s6.73-30.79-13.32-48.69c0,0-63.73-32.22-65.88-113.13-2.15-80.91,54.66-125.23,127.77-122.83"/>
    <path class="cls-4" d="m341.25,455.82s-6.73-30.79,13.32-48.69c0,0,63.73-32.22,65.88-113.13,2.15-80.91-54.66-125.23-127.77-122.83"/>
    <line class="cls-2" x1="259.05" y1="350.89" x2="273.87" y2="378.54"/>
    <line class="cls-2" x1="297.64" y1="328.34" x2="297.64" y2="382.18"/>
    <line class="cls-2" x1="338.56" y1="350.89" x2="323.74" y2="378.54"/>
  </g>
  <g>
    <line class="cls-1" x1="203.88" y1="81.38" x2="242.15" y2="130.13"/>
    <line class="cls-1" x1="303.71" y1="40.53" x2="303.71" y2="112.29"/>
    <line class="cls-1" x1="391.4" y1="76.41" x2="365.27" y2="125.17"/>
  </g>
  <rect class="cls-3" x="196.59" y="599.7" width="202.1" height="93.52" rx="46.76" ry="46.76"/>
  <circle class="cls-5" cx="348.81" cy="647.33" r="34.48"/>
  <g>
    <path class="cls-6" d="m262.09,770.23h-5.81v-14.38h4.49c1.43,0,2.55-.51,2.55-2.29v-8.72c0-1.12-.41-2.24-1.78-2.24-1.28,0-2.19.61-6.02,3.93l-7.14,6.22v17.49h-13.87v-6.73h-3.57v-14.74h3.57v-5h-3.57v-14.18h3.57v-4.84h13.87v9.33l3.06-2.4c4.59-3.57,7.6-5.25,12.24-5.25,10.45,0,13.56,7.55,13.56,14.84v14.53c0,9.94-4.59,14.43-15.15,14.43Z"/>
    <path class="cls-6" d="m317.68,760.85v-19.38c0-2.14-.66-3.26-1.99-3.26h-.46c.77,2.4,1.02,5.35,1.02,8.87v11.83c0,6.78-2.45,11.27-10.35,11.27h-6.37v-14.33h1.84c1.12,0,1.68-.41,1.68-1.84v-6.88c0-1.17-.61-1.48-1.48-1.48h-2.6l-1.58,24.53h-13.72l1.58-24.53h-3.42v-14.94h4.39l.36-5.66h13.72l-.36,5.66h1.33c6.38,0,10.15,1.43,12.29,4.23v-9.03h2.65c9.08,0,13.26,5.66,13.26,13.72v21.21h-11.78Z"/>
    <path class="cls-6" d="m357.97,770.33h-10.81c-8.82,0-14.07-4.95-14.07-12.75v-1.94c0-7.09,5.66-11.47,12.19-11.47h.97v-4.64h-12.34v-14.43h27.84v8.82c12.95.46,17.85,6.88,17.85,17.08v1.94c0,9.43-5.3,17.39-21.62,17.39Zm-9.59-14.43c0-1.27-.87-2.04-1.63-2.04h-.46c-1.17,0-1.99.76-1.99,1.89s.76,1.99,2.24,1.99h1.84v-1.84Zm10.76-8.97h-3.26c2.24,2.14,3.52,5.25,3.77,8.62h.1c2.55,0,3.52-1.68,3.52-4.44,0-2.29-.97-4.18-4.13-4.18Z"/>
  </g>
</svg>