<?xml version="1.0" encoding="UTF-8"?>
<svg id="_レイヤー_1" data-name="レイヤー 1" xmlns="http://www.w3.org/2000/svg" viewBox="0 0 595.28 841.89">
  <defs>
    <style>
      .cls-1 {
        stroke: #d8c99a;
      }

      .cls-1, .cls-2 {
        stroke-width: 20px;
      }

      .cls-1, .cls-2, .cls-3 {
        fill: none;
        stroke-linecap: round;
        stroke-miterlimit: 10;
      }

      .cls-2, .cls-3 {
        stroke: #9fb6c3;
      }

      .cls-3 {
        stroke-width: 26px;
      }

      .cls-4 {
        fill: #9fb6c3;
      }

      .cls-4, .cls-5 {
        stroke-width: 0px;
      }

      .cls-5 {
        fill: #fff;
      }
    </style>
  </defs>
  <g>
    <path class="cls-5" d="m238.42,770.1h-7.98v-19.74h6.16c1.96,0,3.5-.7,3.5-3.15v-11.97c0-1.54-.56-3.08-2.45-3.08-1.75,0-3.01.84-8.26,5.39l-9.8,8.54v24.01h-19.04v-9.24h-4.9v-20.23h4.9v-6.86h-4.9v-19.46h4.9v-6.65h19.04v12.81l4.2-3.29c6.3-4.9,10.43-7.21,16.8-7.21,14.35,0,18.62,10.36,18.62,20.37v19.95c0,13.65-6.3,19.81-20.79,19.81Z"/>
    <path class="cls-5" d="m314.72,757.22v-26.6c0-2.94-.91-4.48-2.73-4.48h-.63c1.05,3.29,1.4,7.35,1.4,12.18v16.24c0,9.31-3.36,15.47-14.21,15.47h-8.75v-19.67h2.52c1.54,0,2.31-.56,2.31-2.52v-9.45c0-1.61-.84-2.03-2.03-2.03h-3.57l-2.17,33.67h-18.83l2.17-33.67h-4.69v-20.51h6.02l.49-7.77h18.83l-.49,7.77h1.82c8.75,0,13.93,1.96,16.87,5.81v-12.39h3.64c12.46,0,18.2,7.77,18.2,18.83v29.12h-16.17Z"/>
    <path class="cls-5" d="m370.02,770.24h-14.84c-12.11,0-19.32-6.79-19.32-17.5v-2.66c0-9.73,7.77-15.75,16.73-15.75h1.33v-6.37h-16.94v-19.81h38.22v12.11c17.78.63,24.5,9.45,24.5,23.45v2.66c0,12.95-7.28,23.87-29.68,23.87Zm-13.16-19.81c0-1.75-1.19-2.8-2.24-2.8h-.63c-1.61,0-2.73,1.05-2.73,2.59s1.05,2.73,3.08,2.73h2.52v-2.52Zm14.77-12.32h-4.48c3.08,2.94,4.83,7.21,5.18,11.83h.14c3.5,0,4.83-2.31,4.83-6.09,0-3.15-1.33-5.74-5.67-5.74Z"/>
  </g>
  <line class="cls-3" x1="276.52" y1="625.68" x2="328.73" y2="625.68"/>
  <path class="cls-4" d="m281.16,652.93h42.95c1.99,0,3.03,2.85,1.69,4.62h0c-12.74,16.83-33.59,16.83-46.33,0h0c-1.34-1.77-.3-4.62,1.69-4.62Z"/>
  <line class="cls-3" x1="264.14" y1="593.86" x2="341.11" y2="593.86"/>
  <path class="cls-3" d="m259.01,562.04s6.73-30.79-13.32-48.69c0,0-63.73-32.22-65.88-113.13-2.15-80.91,54.66-125.23,127.77-122.83"/>
  <path class="cls-3" d="m346.23,562.04s-6.73-30.79,13.32-48.69c0,0,63.73-32.22,65.88-113.13,2.15-80.91-54.66-125.23-127.77-122.83"/>
  <line class="cls-2" x1="264.04" y1="457.12" x2="278.85" y2="484.77"/>
  <line class="cls-2" x1="302.62" y1="434.56" x2="302.62" y2="488.4"/>
  <line class="cls-2" x1="343.55" y1="457.12" x2="328.73" y2="484.77"/>
  <line class="cls-1" x1="202.77" y1="184.44" x2="241.05" y2="233.2"/>
  <line class="cls-1" x1="302.61" y1="143.6" x2="302.61" y2="215.36"/>
  <line class="cls-1" x1="390.29" y1="179.48" x2="364.17" y2="228.23"/>
</svg>