<?xml version="1.0" encoding="UTF-8"?>
<svg id="_レイヤー_1" data-name="レイヤー 1" xmlns="http://www.w3.org/2000/svg" viewBox="0 0 595.28 841.89">
  <defs>
    <style>
      .cls-1 {
        stroke-width: 20px;
      }

      .cls-1, .cls-2 {
        fill: none;
        stroke: #9fb6c3;
        stroke-linecap: round;
        stroke-miterlimit: 10;
      }

      .cls-2 {
        stroke-width: 26px;
      }

      .cls-3 {
        fill: #9fb6c3;
      }

      .cls-3, .cls-4 {
        stroke-width: 0px;
      }

      .cls-4 {
        fill: #fff;
      }
    </style>
  </defs>
  <g>
    <line class="cls-2" x1="271.53" y1="572.89" x2="323.74" y2="572.89"/>
    <path class="cls-3" d="m276.18,600.14h42.95c1.99,0,3.03,2.85,1.69,4.62h0c-12.74,16.83-33.59,16.83-46.33,0h0c-1.34-1.77-.3-4.62,1.69-4.62Z"/>
    <line class="cls-2" x1="259.15" y1="541.07" x2="336.12" y2="541.07"/>
    <path class="cls-2" d="m254.03,509.25s6.73-30.79-13.32-48.69c0,0-63.73-32.22-65.88-113.13-2.15-80.91,54.66-125.23,127.77-122.83"/>
    <path class="cls-2" d="m341.25,509.25s-6.73-30.79,13.32-48.69c0,0,63.73-32.22,65.88-113.13,2.15-80.91-54.66-125.23-127.77-122.83"/>
    <line class="cls-1" x1="259.05" y1="404.33" x2="273.87" y2="431.97"/>
    <line class="cls-1" x1="297.64" y1="381.77" x2="297.64" y2="435.61"/>
    <line class="cls-1" x1="338.56" y1="404.33" x2="323.74" y2="431.97"/>
  </g>
  <g>
    <path class="cls-4" d="m165.31,735.11h-8.21v-20.31h6.34c2.02,0,3.6-.72,3.6-3.24v-12.31c0-1.58-.58-3.17-2.52-3.17-1.8,0-3.1.86-8.5,5.54l-10.08,8.78v24.7h-19.59v-9.5h-5.04v-20.81h5.04v-7.06h-5.04v-20.02h5.04v-6.84h19.59v13.18l4.32-3.38c6.48-5.04,10.73-7.42,17.28-7.42,14.76,0,19.15,10.66,19.15,20.95v20.52c0,14.04-6.48,20.38-21.39,20.38Z"/>
    <path class="cls-4" d="m242.35,721.86v-27.36c0-3.02-.94-4.61-2.81-4.61h-.65c1.08,3.38,1.44,7.56,1.44,12.53v16.71c0,9.58-3.46,15.91-14.62,15.91h-9v-20.23h2.59c1.58,0,2.38-.58,2.38-2.59v-9.72c0-1.66-.86-2.09-2.09-2.09h-3.67l-2.23,34.64h-19.37l2.23-34.64h-4.82v-21.1h6.19l.5-7.99h19.37l-.5,7.99h1.87c9,0,14.33,2.02,17.35,5.98v-12.75h3.74c12.82,0,18.72,7.99,18.72,19.37v29.96h-16.63Z"/>
    <path class="cls-4" d="m308.81,734.83h-45.29v-19.23h42.48c1.44,0,1.94-.65,1.94-2.38,0-1.3-.43-2.16-1.94-2.16h-41.04v-19.15h21.6v3.31h18.79v-3.24c0-1.44-.79-2.38-2.38-2.38h-38.02v-17.93h39.03c19.3,0,22.39,11.81,22.39,18.94v4.82h-13.9c10.22,1.3,16.42,8.06,16.42,19.8,0,12.82-7.63,19.59-20.09,19.59Z"/>
    <path class="cls-4" d="m395.64,718.77c-.36,10.22-6.41,16.92-18.51,16.92h-1.37c-10.51,0-18.87-6.77-18.87-18.79v-1.87c0-10.87,7.78-17.35,18.15-17.5v-1.8c0-.72.07-1.44.07-2.16h-18.94l-1.37,41.48h-19.3l1.37-41.48h-3.82v-19.23h4.39l.07-3.17h19.37l-.07,3.17h18.65v14.98c1.66-10.8,7.92-16.85,21.46-16.85h2.52v19.95h-1.22c-2.52,0-3.38,1.37-3.38,3.82v2.45h4.61v20.09h-3.82Zm-18.43-6.05h-3.53c-1.51,0-2.38,1.15-2.38,2.23v.72c0,1.51,1.01,2.23,2.38,2.23h.72c1.73,0,2.81-1.22,2.81-3.31v-1.87Z"/>
    <path class="cls-4" d="m450.58,733.1v-38.74c0-1.66-.5-1.94-1.15-1.94-.58,0-.94.79-1.08,1.44l-5.11,23.55c-2.59,11.88-6.98,17.86-18.79,17.86s-19.51-6.7-19.51-19.8v-41.4h19.73v38.52c0,1.8.36,2.09.94,2.09.65,0,1.3-.29,1.73-2.52l4.46-21.67c2.38-11.38,7.42-17.93,19.15-17.93,12.67,0,19.66,8.5,19.66,19.87v40.68h-20.02Z"/>
  </g>
</svg>