<?xml version="1.0" encoding="UTF-8"?>
<svg id="_レイヤー_1" data-name="レイヤー 1" xmlns="http://www.w3.org/2000/svg" viewBox="0 0 595.28 841.89">
  <defs>
    <style>
      .cls-1 {
        stroke-width: 12px;
      }

      .cls-1, .cls-2, .cls-3 {
        fill: none;
        stroke: #9fb6c3;
        stroke-miterlimit: 10;
      }

      .cls-2 {
        stroke-width: 20px;
      }

      .cls-2, .cls-3 {
        stroke-linecap: round;
      }

      .cls-3 {
        stroke-width: 26px;
      }

      .cls-4 {
        fill: #9fb6c3;
      }

      .cls-4, .cls-5 {
        stroke-width: 0px;
      }

      .cls-5 {
        fill: #fff;
      }
    </style>
  </defs>
  <g>
    <line class="cls-3" x1="271.53" y1="519.46" x2="323.74" y2="519.46"/>
    <path class="cls-4" d="m276.18,546.71h42.95c1.99,0,3.03,2.85,1.69,4.62h0c-12.74,16.83-33.59,16.83-46.33,0h0c-1.34-1.77-.3-4.62,1.69-4.62Z"/>
    <line class="cls-3" x1="259.15" y1="487.64" x2="336.12" y2="487.64"/>
    <path class="cls-3" d="m254.03,455.82s6.73-30.79-13.32-48.69c0,0-63.73-32.22-65.88-113.13-2.15-80.91,54.66-125.23,127.77-122.83"/>
    <path class="cls-3" d="m341.25,455.82s-6.73-30.79,13.32-48.69c0,0,63.73-32.22,65.88-113.13,2.15-80.91-54.66-125.23-127.77-122.83"/>
    <line class="cls-2" x1="259.05" y1="350.89" x2="273.87" y2="378.54"/>
    <line class="cls-2" x1="297.64" y1="328.34" x2="297.64" y2="382.18"/>
    <line class="cls-2" x1="338.56" y1="350.89" x2="323.74" y2="378.54"/>
  </g>
  <rect class="cls-1" x="191.73" y="599.7" width="202.1" height="93.52" rx="46.76" ry="46.76"/>
  <circle class="cls-4" cx="238.69" cy="647.33" r="34.48"/>
  <g>
    <path class="cls-5" d="m207.88,770.23h-5.81v-14.38h4.49c1.43,0,2.55-.51,2.55-2.29v-8.72c0-1.12-.41-2.24-1.78-2.24-1.28,0-2.19.61-6.02,3.93l-7.14,6.22v17.49h-13.87v-6.73h-3.57v-14.74h3.57v-5h-3.57v-14.18h3.57v-4.84h13.87v9.33l3.06-2.4c4.59-3.57,7.6-5.25,12.24-5.25,10.45,0,13.56,7.55,13.56,14.84v14.53c0,9.94-4.59,14.43-15.15,14.43Z"/>
    <path class="cls-5" d="m263.46,760.85v-19.38c0-2.14-.66-3.26-1.99-3.26h-.46c.77,2.4,1.02,5.35,1.02,8.87v11.83c0,6.78-2.45,11.27-10.35,11.27h-6.37v-14.33h1.84c1.12,0,1.68-.41,1.68-1.84v-6.88c0-1.17-.61-1.48-1.48-1.48h-2.6l-1.58,24.53h-13.72l1.58-24.53h-3.42v-14.94h4.39l.36-5.66h13.72l-.36,5.66h1.33c6.38,0,10.15,1.43,12.29,4.23v-9.03h2.65c9.08,0,13.26,5.66,13.26,13.72v21.21h-11.78Z"/>
    <path class="cls-5" d="m311.61,770.03h-32.08v-13.62h30.09c1.02,0,1.38-.46,1.38-1.68,0-.92-.31-1.53-1.38-1.53h-29.07v-13.56h15.3v2.35h13.31v-2.29c0-1.02-.56-1.68-1.68-1.68h-26.93v-12.7h27.64c13.67,0,15.86,8.36,15.86,13.41v3.42h-9.84c7.24.92,11.63,5.71,11.63,14.02,0,9.08-5.41,13.87-14.23,13.87Z"/>
    <path class="cls-5" d="m374.13,758.66c-.25,7.24-4.54,11.98-13.11,11.98h-.97c-7.45,0-13.36-4.79-13.36-13.31v-1.33c0-7.7,5.51-12.29,12.85-12.39v-1.28c0-.51.05-1.02.05-1.53h-13.41l-.97,29.37h-13.67l.97-29.37h-2.7v-13.62h3.11l.05-2.24h13.72l-.05,2.24h13.21v10.61c1.17-7.65,5.61-11.93,15.2-11.93h1.79v14.12h-.87c-1.79,0-2.4.97-2.4,2.7v1.73h3.26v14.23h-2.7Zm-13.05-4.28h-2.5c-1.07,0-1.68.82-1.68,1.58v.51c0,1.07.71,1.58,1.68,1.58h.51c1.22,0,1.99-.87,1.99-2.35v-1.33Z"/>
    <path class="cls-5" d="m413.05,768.8v-27.44c0-1.17-.36-1.38-.82-1.38-.41,0-.66.56-.77,1.02l-3.62,16.67c-1.84,8.41-4.95,12.65-13.31,12.65s-13.82-4.74-13.82-14.02v-29.32h13.97v27.28c0,1.28.25,1.48.66,1.48.46,0,.92-.2,1.22-1.79l3.16-15.35c1.68-8.06,5.25-12.7,13.56-12.7,8.98,0,13.92,6.02,13.92,14.07v28.81h-14.18Z"/>
  </g>
</svg>