<?xml version="1.0" encoding="UTF-8"?>
<svg id="_レイヤー_2" data-name="レイヤー 2" xmlns="http://www.w3.org/2000/svg" viewBox="0 0 841.89 595.28">
  <defs>
    <style>
      .cls-1 {
        fill: #a1b9c7;
      }

      .cls-1, .cls-2, .cls-3 {
        stroke-width: 0px;
      }

      .cls-2 {
        fill: #969696;
      }

      .cls-3 {
        fill: #fff;
      }
    </style>
  </defs>
  <g>
    <rect class="cls-3" x="74.08" y="118.47" width="693.73" height="346.07"/>
    <polygon class="cls-2" points="430.44 464.54 74.08 464.54 102.16 476.8 430.44 476.8 430.44 476.8 741.23 476.8 767.81 464.54 430.44 464.54"/>
  </g>
  <rect class="cls-1" x="162.99" y="212.99" width="515.9" height="202.11"/>
  <g>
    <path class="cls-3" d="m300.19,337.96h-7.56v-18.71h5.84c1.86,0,3.32-.66,3.32-2.99v-11.34c0-1.46-.53-2.92-2.32-2.92-1.66,0-2.85.8-7.83,5.11l-9.29,8.09v22.75h-18.04v-8.76h-4.64v-19.17h4.64v-6.5h-4.64v-18.44h4.64v-6.3h18.04v12.14l3.98-3.12c5.97-4.64,9.88-6.83,15.92-6.83,13.6,0,17.64,9.82,17.64,19.3v18.9c0,12.93-5.97,18.77-19.7,18.77Z"/>
    <path class="cls-3" d="m371.16,325.76v-25.21c0-2.79-.86-4.24-2.59-4.24h-.6c.99,3.12,1.33,6.96,1.33,11.54v15.39c0,8.82-3.18,14.66-13.46,14.66h-8.29v-18.64h2.39c1.46,0,2.19-.53,2.19-2.39v-8.96c0-1.53-.8-1.92-1.92-1.92h-3.38l-2.06,31.91h-17.84l2.06-31.91h-4.44v-19.43h5.7l.46-7.36h17.84l-.46,7.36h1.72c8.29,0,13.2,1.86,15.99,5.51v-11.74h3.45c11.81,0,17.25,7.36,17.25,17.84v27.59h-15.32Z"/>
    <path class="cls-3" d="m432.39,337.69h-41.72v-17.71h39.13c1.33,0,1.79-.6,1.79-2.19,0-1.19-.4-1.99-1.79-1.99h-37.81v-17.64h19.9v3.05h17.31v-2.98c0-1.33-.73-2.19-2.19-2.19h-35.02v-16.52h35.95c17.78,0,20.63,10.88,20.63,17.44v4.44h-12.8c9.42,1.19,15.12,7.43,15.12,18.24,0,11.81-7.03,18.04-18.51,18.04Z"/>
    <path class="cls-3" d="m512.38,322.9c-.33,9.42-5.9,15.59-17.05,15.59h-1.26c-9.68,0-17.38-6.24-17.38-17.31v-1.72c0-10.02,7.16-15.99,16.71-16.12v-1.66c0-.66.07-1.33.07-1.99h-17.45l-1.26,38.21h-17.78l1.26-38.21h-3.52v-17.71h4.05l.07-2.92h17.84l-.07,2.92h17.18v13.8c1.53-9.95,7.3-15.52,19.77-15.52h2.32v18.37h-1.13c-2.32,0-3.12,1.26-3.12,3.52v2.25h4.25v18.51h-3.51Zm-16.98-5.57h-3.25c-1.39,0-2.19,1.06-2.19,2.06v.66c0,1.39.93,2.06,2.19,2.06h.66c1.59,0,2.59-1.13,2.59-3.05v-1.72Z"/>
    <path class="cls-3" d="m562.99,336.1v-35.69c0-1.53-.46-1.79-1.06-1.79-.53,0-.86.73-.99,1.33l-4.71,21.69c-2.39,10.94-6.43,16.45-17.31,16.45s-17.97-6.17-17.97-18.24v-38.14h18.17v35.49c0,1.66.33,1.92.86,1.92.6,0,1.19-.27,1.59-2.32l4.11-19.97c2.19-10.48,6.83-16.52,17.64-16.52,11.67,0,18.11,7.83,18.11,18.31v37.48h-18.44Z"/>
  </g>
</svg>