<?xml version="1.0" encoding="UTF-8"?>
<svg id="_レイヤー_1" data-name="レイヤー 1" xmlns="http://www.w3.org/2000/svg" viewBox="0 0 322.64 323.88">
  <defs>
    <style>
      .cls-1 {
        fill: #e3e3e4;
      }

      .cls-2 {
        fill: #7ea1ba;
      }

      .cls-2, .cls-3 {
        stroke: #69abb5;
        stroke-miterlimit: 10;
      }

      .cls-3 {
        fill: #a1b9c7;
      }
    </style>
  </defs>
  <circle class="cls-3" cx="161.32" cy="161.94" r="158.2"/>
  <circle class="cls-2" cx="161.32" cy="161.94" r="137.6"/>
  <g>
    <path class="cls-1" d="m90.23,160.37v12.41c0,6.66-3.23,11.51-9.79,11.51h-10.32v-12.55h6.42c.9,0,1.28-.43,1.28-1.28v-4.52h-6.04c-2.62,9.94-11.36,18.16-22.44,18.35v-12.84c4.52-.57,7.61-2.57,8.94-5.52h-6.99v-5.66c-.9.19-1.85.38-2.85.38v-13.27c4.42-.52,7.56-4.85,7.61-7.46h13.88c-.81,4.9-3.71,10.13-7.75,14.12h16.5c-3.95-4.04-6.66-9.27-7.51-14.12h13.88c.05,2.62,2.95,6.94,7.61,7.46v13.27c-.81,0-1.62-.14-2.42-.29Z"/>
    <path class="cls-1" d="m129.65,174.69v-18.07c0-2-.62-3.04-1.85-3.04h-.43c.71,2.24.95,4.99.95,8.27v11.03c0,6.32-2.28,10.51-9.65,10.51h-5.94v-13.36h1.71c1.05,0,1.57-.38,1.57-1.71v-6.42c0-1.09-.57-1.38-1.38-1.38h-2.42l-1.47,22.87h-12.79l1.47-22.87h-3.19v-13.93h4.09l.33-5.28h12.79l-.33,5.28h1.24c5.94,0,9.46,1.33,11.46,3.95v-8.42h2.47c8.46,0,12.36,5.28,12.36,12.79v19.78h-10.98Z"/>
    <path class="cls-1" d="m168.88,183.29h-17.4v-10.6h17.02c2.38,0,3.85-1.43,3.85-4.71,0-3.57-1.81-4.52-3.85-4.52h-20.68v-11.93h11.27v1.47h9.79c9.79,0,14.93,5.37,14.93,15.12s-6.42,15.17-14.93,15.17Z"/>
    <path class="cls-1" d="m206.82,155.19l-1.09,28.24h-13.08l1.09-28.24h-2.57v-12.98h3.04l.05-1.43h13.08l-.05,1.43h27.91v12.98h-28.38Zm13.6,28.34c-8.94,0-12.74-4.99-12.74-14.03,0-7.56,4.47-12.6,13.31-12.6h13.41v10.08h-11.27c-.71,0-1.09.52-1.09,1.33,0,.86.24,1.38,1.09,1.38h11.27v13.84h-13.98Z"/>
    <path class="cls-1" d="m256.89,172.07h-9.94l-2.81-18.21v-13.84h15.59v13.84l-2.85,18.21Zm-11.84,12.6v-11.79h13.69v11.79h-13.69Z"/>
  </g>
</svg>