<?xml version="1.0" encoding="UTF-8"?>
<svg id="_レイヤー_1" data-name="レイヤー 1" xmlns="http://www.w3.org/2000/svg" viewBox="0 0 322.64 323.88">
  <defs>
    <style>
      .cls-1 {
        fill: #fff;
      }

      .cls-2, .cls-3 {
        fill: #a1b9c7;
      }

      .cls-3 {
        stroke: #69abb5;
        stroke-miterlimit: 10;
      }
    </style>
  </defs>
  <circle class="cls-2" cx="161.32" cy="161.94" r="158.2"/>
  <circle class="cls-3" cx="161.32" cy="161.94" r="137.6"/>
  <g>
    <path class="cls-1" d="m85.95,156.02v12.41c0,6.66-3.23,11.51-9.79,11.51h-10.32v-12.55h6.42c.9,0,1.28-.43,1.28-1.28v-4.52h-6.04c-2.62,9.94-11.36,18.16-22.44,18.35v-12.84c4.52-.57,7.61-2.57,8.94-5.52h-6.99v-5.66c-.9.19-1.85.38-2.85.38v-13.27c4.42-.52,7.56-4.85,7.61-7.46h13.88c-.81,4.9-3.71,10.13-7.75,14.12h16.5c-3.95-4.04-6.66-9.27-7.51-14.12h13.88c.05,2.62,2.95,6.94,7.61,7.46v13.27c-.81,0-1.62-.14-2.42-.29Z"/>
    <path class="cls-1" d="m125.37,170.33v-18.07c0-2-.62-3.04-1.85-3.04h-.43c.71,2.23.95,4.99.95,8.27v11.03c0,6.32-2.28,10.51-9.65,10.51h-5.94v-13.36h1.71c1.05,0,1.57-.38,1.57-1.71v-6.42c0-1.09-.57-1.38-1.38-1.38h-2.42l-1.47,22.87h-12.79l1.47-22.87h-3.19v-13.93h4.09l.33-5.28h12.79l-.33,5.28h1.24c5.94,0,9.46,1.33,11.46,3.95v-8.42h2.47c8.46,0,12.36,5.28,12.36,12.79v19.78h-10.98Z"/>
    <path class="cls-1" d="m170.26,178.89h-29.91v-12.69h28.05c.95,0,1.28-.43,1.28-1.57,0-.86-.29-1.43-1.28-1.43h-27.1v-12.65h14.26v2.19h12.41v-2.14c0-.95-.52-1.57-1.57-1.57h-25.1v-11.84h25.77c12.74,0,14.79,7.8,14.79,12.5v3.19h-9.18c6.75.86,10.84,5.33,10.84,13.08,0,8.46-5.04,12.93-13.27,12.93Z"/>
    <path class="cls-1" d="m228.55,168.29c-.24,6.75-4.23,11.17-12.22,11.17h-.9c-6.94,0-12.46-4.47-12.46-12.41v-1.24c0-7.18,5.14-11.46,11.98-11.55v-1.19c0-.48.05-.95.05-1.43h-12.5l-.9,27.39h-12.74l.9-27.39h-2.52v-12.69h2.9l.05-2.09h12.79l-.05,2.09h12.31v9.89c1.09-7.13,5.23-11.13,14.17-11.13h1.66v13.17h-.81c-1.66,0-2.23.9-2.23,2.52v1.62h3.04v13.26h-2.52Zm-12.17-3.99h-2.33c-1,0-1.57.76-1.57,1.47v.48c0,1,.67,1.47,1.57,1.47h.48c1.14,0,1.85-.81,1.85-2.19v-1.24Z"/>
    <path class="cls-1" d="m264.83,177.75v-25.58c0-1.09-.33-1.28-.76-1.28-.38,0-.62.52-.71.95l-3.38,15.55c-1.71,7.85-4.61,11.79-12.41,11.79s-12.89-4.42-12.89-13.07v-27.34h13.03v25.44c0,1.19.24,1.38.62,1.38.43,0,.86-.19,1.14-1.66l2.95-14.31c1.57-7.51,4.9-11.84,12.65-11.84,8.37,0,12.98,5.61,12.98,13.12v26.86h-13.22Z"/>
  </g>
</svg>